<svg width="323" height="55" viewBox="0 0 323 55" fill="none" xmlns="http://www.w3.org/2000/svg">
<path d="M21.696 5.10873C9.088 5.10873 0 14.1967 0 26.6767C0 39.2847 9.088 48.1807 21.696 48.1807H22.912C25.6 48.1807 27.84 46.3247 27.776 43.3167C27.712 40.3087 25.536 38.3887 22.912 38.3887H21.696C14.976 38.3887 10.368 33.4607 10.368 26.6767C10.368 19.9567 14.976 14.8367 21.696 14.8367C28.48 14.8367 33.024 19.9567 33.024 26.6767C33.024 28.1487 32.64 30.0687 32.32 31.1567C31.552 34.0367 32.96 36.1487 36.032 36.9807C39.104 37.6847 41.6 36.5967 42.304 33.7167C43.136 30.9007 43.392 28.7887 43.392 26.6767C43.392 14.1327 34.304 5.10873 21.696 5.10873ZM38.76 47.6687C40.744 45.6207 40.68 42.7407 38.568 40.5647C36.52 38.4527 33.448 38.4527 31.4 40.5007C29.352 42.5487 29.48 45.4927 31.592 47.5407C33.768 49.6527 36.712 49.6527 38.76 47.6687Z" fill="#FFFFFF"/>
<path d="M68.2255 15.0927C67.7135 14.9647 67.0095 14.8367 66.1135 14.8367C62.7855 14.8367 59.5215 16.6927 58.1775 19.5727H57.8575V19.1887C57.2815 16.6927 55.5535 15.3487 53.3135 15.3487C50.3695 15.3487 48.3215 17.5887 48.3215 20.5967V42.4847C48.3215 45.4927 50.3695 47.6687 53.3135 47.6687C56.2575 47.6687 58.3695 45.4927 58.3695 42.4847V35.3807C58.3695 27.3167 60.5455 24.5647 64.2575 24.5647C65.0895 24.5647 65.9215 24.6927 66.4335 24.8207C69.4415 25.5887 71.6815 23.9887 72.1295 21.0447C72.5775 18.1647 70.9135 15.7327 68.2255 15.0927Z" fill="#FFFFFF"/>
<path fill-rule="evenodd" clip-rule="evenodd" d="M95.4162 0.947712C95.1372 1.56215 95.0025 2.24515 94.9136 3.071C94.8327 3.82317 94.4924 4.52715 93.9376 5.04987C92.8087 6.1137 90.8702 8.05233 89.8405 9.72675C88.6241 11.705 87.6662 14.9571 87.3336 16.171C87.247 16.4871 87.1139 16.7873 86.9313 17.0608L80.3739 26.884C80.0598 27.3546 79.8819 27.9172 80.0895 28.4421C80.4072 29.2453 81.2369 30.4644 83.4035 31.3541C84.8418 31.9447 85.8628 32.2692 86.567 32.4465C87.4206 32.6614 88.1973 32.2165 88.7125 31.5121C89.5328 30.3907 90.8863 28.7821 92.1813 28.3263C93.2591 27.9469 93.9896 27.9292 94.6866 27.9124C95.3141 27.8972 95.9144 27.8826 96.7165 27.6054C98.4851 26.9939 100.308 25.4394 101.673 24.0585C102.916 22.8011 105.084 22.704 105.59 24.3871C105.691 24.7223 105.762 25.0763 105.787 25.4426C105.906 27.2028 104.572 29.154 104.071 29.8194C103.95 29.9794 103.81 30.1158 103.653 30.2419C102.387 31.2616 96.2759 36.2817 93.7906 40.1492C92.7922 41.7028 92.3411 42.5496 92.173 42.9969C92.0147 43.4181 92.4998 43.3517 92.9886 43.2848C93.1055 43.2688 93.2226 43.2528 93.3312 43.2434C95.4849 43.0569 101.402 42.6003 107.689 42.6003C112.546 42.6003 116.795 42.9819 119.348 43.2758C120.803 43.4433 122.201 42.5796 122.634 41.2009C123.874 37.26 124.706 34.4655 124.952 29.6239C123.949 12.4051 117.199 6.92965 103.604 4.54226C103.028 4.44108 102.488 4.17981 102.063 3.78283L98.8368 0.76617C97.7862 -0.216125 96.0078 -0.354969 95.4162 0.947712ZM125.279 46.9257C125.316 46.9741 125.353 47.0223 125.391 47.07C126.415 48.3676 126.841 49.2304 127 50.9629V52.1164C127 53.7089 125.69 55 124.074 55H89.5479C87.932 55 86.622 53.7089 86.622 52.1164V50.6907C86.622 50.2995 86.7025 49.9119 86.858 49.552C87.3342 48.4501 87.6369 47.8 88.5239 46.9258C88.5713 46.879 88.6185 46.8307 88.6669 46.7811C89.6632 45.7599 91.1985 44.1863 107.104 44.1863C123.168 44.1863 124.302 45.6578 125.279 46.9257Z" fill="#FFFFFF"/>
<path d="M164.389 24.052C162.5 22.1913 160.262 20.9508 157.255 20.9508C151.31 20.9508 147.253 25.6371 147.253 31.2194C147.253 36.8017 151.31 41.4191 157.255 41.4191C160.332 41.4191 162.57 40.1786 164.459 38.3179C166.207 36.5949 168.235 36.5949 170.054 38.3179C171.732 40.0408 172.012 42.1772 170.124 43.9691C166.906 47.1392 162.57 49 157.255 49C146.624 49 139 41.4191 139 31.2194C139 20.9508 146.624 13.4388 157.255 13.4388C162.64 13.4388 166.976 15.2996 170.124 18.4008C171.872 20.1238 171.453 22.1913 169.704 23.9142C167.816 25.6371 165.997 25.7061 164.389 24.052Z" fill="#FFFFFF"/>
<path d="M196.498 13.4388C203.632 13.4388 210.276 17.2293 210.276 27.4979V44.1758C210.276 46.6568 208.667 48.4487 206.149 48.4487C203.632 48.4487 202.023 46.6568 202.023 44.1758V28.3938C202.023 21.9845 198.666 20.9508 194.679 20.9508C188.035 20.9508 186.216 24.8101 186.216 26.8087V44.1758C186.216 46.6568 184.608 48.4487 182.09 48.4487C179.572 48.4487 177.963 46.6568 177.963 44.1758V4.27285C177.963 1.79184 179.572 0 182.09 0C184.608 0 186.216 1.79184 186.216 4.27285V17.8495H186.636C188.314 15.5063 191.672 13.4388 196.498 13.4388Z" fill="#FFFFFF"/>
<path d="M235.05 41.557C237.638 41.557 239.107 42.9353 239.107 45.2785C239.107 47.6217 237.638 49 235.05 49C224.419 49 216.796 41.4191 216.796 31.2194C216.796 20.744 224.839 13.4388 235.05 13.4388C244.912 13.4388 251.557 19.5035 251.557 28.6695C251.557 32.1153 249.388 34.8031 245.891 34.8031H237.638C235.33 34.8031 233.652 33.5626 233.652 31.2194C233.652 28.9451 235.33 27.6357 237.638 27.6357H243.723C243.653 24.3277 240.296 20.6062 235.05 20.6062C229.105 20.6062 224.979 25.1547 224.979 31.1505C224.979 36.9395 229.035 41.557 235.05 41.557Z" fill="#FFFFFF"/>
<path d="M265.503 23.294C265.503 25.5682 267.881 26.3952 272.427 27.429C278.722 28.9452 284.737 30.5302 284.737 38.18C284.737 45.6231 279.142 49 271.098 49C264.454 49 259.628 46.7257 257.39 44.1069C255.642 42.0394 255.851 40.2475 257.53 38.6625C259.628 36.6639 261.447 37.4909 262.636 38.5246C264.524 40.2475 266.832 42.0394 271.308 42.0394C274.665 42.0394 276.764 40.9367 276.764 38.7314C276.764 36.526 274.526 35.7679 268.651 34.1828C262.845 32.5978 257.67 31.0816 257.67 24.2588C257.67 16.609 263.965 13.4388 270.959 13.4388C274.945 13.4388 279.491 14.4726 282.289 17.436C283.478 18.6076 284.387 20.2616 282.289 22.5359C280.191 24.6723 278.652 24.052 277.183 22.9494C275.854 21.9845 273.546 20.3305 270.049 20.3305C267.671 20.3305 265.503 21.0886 265.503 23.294Z" fill="#FFFFFF"/>
<path d="M298.766 23.294C298.766 25.5682 301.144 26.3952 305.69 27.429C311.985 28.9452 318 30.5302 318 38.18C318 45.6231 312.405 49 304.361 49C297.717 49 292.891 46.7257 290.653 44.1069C288.905 42.0394 289.114 40.2475 290.793 38.6625C292.891 36.6639 294.71 37.4909 295.899 38.5246C297.787 40.2475 300.095 42.0394 304.571 42.0394C307.928 42.0394 310.027 40.9367 310.027 38.7314C310.027 36.526 307.789 35.7679 301.914 34.1828C296.108 32.5978 290.933 31.0816 290.933 24.2588C290.933 16.609 297.227 13.4388 304.222 13.4388C308.208 13.4388 312.754 14.4726 315.552 17.436C316.741 18.6076 317.65 20.2616 315.552 22.5359C313.454 24.6723 311.915 24.052 310.446 22.9494C309.117 21.9845 306.809 20.3305 303.312 20.3305C300.934 20.3305 298.766 21.0886 298.766 23.294Z" fill="#FFFFFF"/>
</svg>
